<mxfile host="65bd71144e">
    <diagram id="lU2moMCovQJbQV1YTAk2" name="Страница 1">
        <mxGraphModel dx="683" dy="361" grid="1" gridSize="10" guides="1" tooltips="1" connect="1" arrows="1" fold="1" page="1" pageScale="1" pageWidth="827" pageHeight="1169" math="0" shadow="0">
            <root>
                <mxCell id="0"/>
                <mxCell id="1" parent="0"/>
                <mxCell id="3" style="edgeStyle=none;html=1;" edge="1" parent="1" source="2" target="4">
                    <mxGeometry relative="1" as="geometry">
                        <mxPoint x="225" y="210" as="targetPoint"/>
                    </mxGeometry>
                </mxCell>
                <mxCell id="2" value="Начало" style="ellipse;whiteSpace=wrap;html=1;" vertex="1" parent="1">
                    <mxGeometry x="180" y="120" width="90" height="50" as="geometry"/>
                </mxCell>
                <mxCell id="5" style="edgeStyle=none;html=1;entryX=0.5;entryY=0;entryDx=0;entryDy=0;" edge="1" parent="1" source="4" target="6">
                    <mxGeometry relative="1" as="geometry">
                        <mxPoint x="225" y="290" as="targetPoint"/>
                    </mxGeometry>
                </mxCell>
                <mxCell id="4" value="string&lt;br&gt;realsize&lt;br&gt;result" style="shape=parallelogram;perimeter=parallelogramPerimeter;whiteSpace=wrap;html=1;fixedSize=1;" vertex="1" parent="1">
                    <mxGeometry x="170" y="210" width="110" height="40" as="geometry"/>
                </mxCell>
                <mxCell id="7" style="edgeStyle=none;html=1;" edge="1" parent="1" source="6" target="8">
                    <mxGeometry relative="1" as="geometry">
                        <mxPoint x="225.0000000000001" y="490" as="targetPoint"/>
                    </mxGeometry>
                </mxCell>
                <mxCell id="6" value="&lt;div style=&quot;color: rgb(51 , 51 , 51) ; background-color: rgb(245 , 245 , 245) ; font-family: &amp;#34;consolas&amp;#34; , &amp;#34;courier new&amp;#34; , monospace ; font-size: 14px ; line-height: 19px&quot;&gt;&lt;span style=&quot;color: #4b69c6&quot;&gt;string&lt;/span&gt;&lt;span style=&quot;color: #777777&quot;&gt;[]&lt;/span&gt; array &lt;span style=&quot;color: #777777&quot;&gt;=&lt;/span&gt; &lt;span style=&quot;color: #7a3e9d&quot;&gt;stroka&lt;/span&gt;&lt;/div&gt;&lt;div style=&quot;color: rgb(51 , 51 , 51) ; background-color: rgb(245 , 245 , 245) ; font-family: &amp;#34;consolas&amp;#34; , &amp;#34;courier new&amp;#34; , monospace ; font-size: 14px ; line-height: 19px&quot;&gt;&lt;div style=&quot;font-family: &amp;#34;consolas&amp;#34; , &amp;#34;courier new&amp;#34; , monospace ; line-height: 19px&quot;&gt;result &lt;span style=&quot;color: #777777&quot;&gt;=&lt;/span&gt; &lt;span style=&quot;color: #4b69c6&quot;&gt;new&lt;/span&gt; &lt;span style=&quot;color: #4b69c6&quot;&gt;string&lt;/span&gt;&lt;span style=&quot;color: #777777&quot;&gt;[&lt;/span&gt;&lt;span style=&quot;color: #7a3e9d&quot;&gt;array&lt;/span&gt;&lt;span style=&quot;color: #777777&quot;&gt;.&lt;/span&gt;&lt;span style=&quot;color: #7a3e9d&quot;&gt;Length&lt;/span&gt;&lt;span style=&quot;color: #777777&quot;&gt;]&lt;/span&gt;&lt;/div&gt;&lt;div style=&quot;font-family: &amp;#34;consolas&amp;#34; , &amp;#34;courier new&amp;#34; , monospace ; line-height: 19px&quot;&gt;&lt;div style=&quot;font-family: &amp;#34;consolas&amp;#34; , &amp;#34;courier new&amp;#34; , monospace ; line-height: 19px&quot;&gt;realSize &lt;span style=&quot;color: #777777&quot;&gt;=&lt;/span&gt; &lt;span style=&quot;color: #9c5d27&quot;&gt;0&lt;/span&gt;&lt;/div&gt;&lt;/div&gt;&lt;/div&gt;" style="rounded=0;whiteSpace=wrap;html=1;" vertex="1" parent="1">
                    <mxGeometry x="78.75" y="330" width="292.5" height="100" as="geometry"/>
                </mxCell>
                <mxCell id="9" style="edgeStyle=none;html=1;" edge="1" parent="1" source="8">
                    <mxGeometry relative="1" as="geometry">
                        <mxPoint x="450" y="530" as="targetPoint"/>
                    </mxGeometry>
                </mxCell>
                <mxCell id="10" style="edgeStyle=none;html=1;" edge="1" parent="1" source="8">
                    <mxGeometry relative="1" as="geometry">
                        <mxPoint x="224.9999999999999" y="660" as="targetPoint"/>
                    </mxGeometry>
                </mxCell>
                <mxCell id="8" value="result &amp;lt; array.Length" style="rhombus;whiteSpace=wrap;html=1;" vertex="1" parent="1">
                    <mxGeometry x="140" y="490" width="170" height="80" as="geometry"/>
                </mxCell>
                <mxCell id="12" value="да" style="text;html=1;align=center;verticalAlign=middle;resizable=0;points=[];autosize=1;strokeColor=none;fillColor=none;" vertex="1" parent="1">
                    <mxGeometry x="355" y="510" width="30" height="20" as="geometry"/>
                </mxCell>
                <mxCell id="13" value="нет" style="text;html=1;align=center;verticalAlign=middle;resizable=0;points=[];autosize=1;strokeColor=none;fillColor=none;" vertex="1" parent="1">
                    <mxGeometry x="235" y="600" width="30" height="20" as="geometry"/>
                </mxCell>
                <mxCell id="14" value="result" style="rounded=0;whiteSpace=wrap;html=1;" vertex="1" parent="1">
                    <mxGeometry x="450" y="500" width="120" height="60" as="geometry"/>
                </mxCell>
                <mxCell id="17" style="edgeStyle=none;html=1;entryX=0;entryY=0.5;entryDx=0;entryDy=0;exitX=0;exitY=0.5;exitDx=0;exitDy=0;" edge="1" parent="1" source="16" target="8">
                    <mxGeometry relative="1" as="geometry">
                        <mxPoint x="10" y="700" as="targetPoint"/>
                        <Array as="points">
                            <mxPoint x="50" y="620"/>
                        </Array>
                    </mxGeometry>
                </mxCell>
                <mxCell id="19" style="edgeStyle=none;html=1;" edge="1" parent="1" source="16">
                    <mxGeometry relative="1" as="geometry">
                        <mxPoint x="410" y="700" as="targetPoint"/>
                    </mxGeometry>
                </mxCell>
                <mxCell id="16" value="value.Length&amp;lt;= 3" style="rhombus;whiteSpace=wrap;html=1;" vertex="1" parent="1">
                    <mxGeometry x="150" y="660" width="150" height="80" as="geometry"/>
                </mxCell>
                <mxCell id="18" value="нет" style="text;html=1;align=center;verticalAlign=middle;resizable=0;points=[];autosize=1;strokeColor=none;fillColor=none;" vertex="1" parent="1">
                    <mxGeometry x="60" y="610" width="30" height="20" as="geometry"/>
                </mxCell>
                <mxCell id="20" value="да" style="text;html=1;align=center;verticalAlign=middle;resizable=0;points=[];autosize=1;strokeColor=none;fillColor=none;" vertex="1" parent="1">
                    <mxGeometry x="335" y="680" width="30" height="20" as="geometry"/>
                </mxCell>
                <mxCell id="22" style="edgeStyle=none;html=1;" edge="1" parent="1" source="21" target="23">
                    <mxGeometry relative="1" as="geometry">
                        <mxPoint x="475" y="830" as="targetPoint"/>
                    </mxGeometry>
                </mxCell>
                <mxCell id="21" value="result[realsize] = value" style="rounded=0;whiteSpace=wrap;html=1;" vertex="1" parent="1">
                    <mxGeometry x="410" y="670" width="130" height="60" as="geometry"/>
                </mxCell>
                <mxCell id="24" style="edgeStyle=none;html=1;entryX=0.5;entryY=1;entryDx=0;entryDy=0;" edge="1" parent="1" source="23" target="16">
                    <mxGeometry relative="1" as="geometry">
                        <Array as="points">
                            <mxPoint x="225" y="830"/>
                        </Array>
                    </mxGeometry>
                </mxCell>
                <mxCell id="23" value="realsize++" style="rounded=0;whiteSpace=wrap;html=1;" vertex="1" parent="1">
                    <mxGeometry x="415" y="800" width="120" height="60" as="geometry"/>
                </mxCell>
            </root>
        </mxGraphModel>
    </diagram>
</mxfile>